<svg id="visual" viewBox="0 0 960 540" width="960" height="540" xmlns="http://www.w3.org/2000/svg" xmlns:xlink="http://www.w3.org/1999/xlink" version="1.1"><rect x="0" y="0" width="960" height="540" fill="#f9f9f9"></rect><defs><linearGradient id="grad1_0" x1="43.8%" y1="100%" x2="100%" y2="0%"><stop offset="14.444444444444446%" stop-color="#e8e8e8" stop-opacity="1"></stop><stop offset="85.55555555555554%" stop-color="#e8e8e8" stop-opacity="1"></stop></linearGradient></defs><defs><linearGradient id="grad1_1" x1="43.8%" y1="100%" x2="100%" y2="0%"><stop offset="14.444444444444446%" stop-color="#e8e8e8" stop-opacity="1"></stop><stop offset="85.55555555555554%" stop-color="#ececec" stop-opacity="1"></stop></linearGradient></defs><defs><linearGradient id="grad1_2" x1="43.8%" y1="100%" x2="100%" y2="0%"><stop offset="14.444444444444446%" stop-color="#f0f0f0" stop-opacity="1"></stop><stop offset="85.55555555555554%" stop-color="#ececec" stop-opacity="1"></stop></linearGradient></defs><defs><linearGradient id="grad1_3" x1="43.8%" y1="100%" x2="100%" y2="0%"><stop offset="14.444444444444446%" stop-color="#f0f0f0" stop-opacity="1"></stop><stop offset="85.55555555555554%" stop-color="#f5f5f5" stop-opacity="1"></stop></linearGradient></defs><defs><linearGradient id="grad1_4" x1="43.8%" y1="100%" x2="100%" y2="0%"><stop offset="14.444444444444446%" stop-color="#f9f9f9" stop-opacity="1"></stop><stop offset="85.55555555555554%" stop-color="#f5f5f5" stop-opacity="1"></stop></linearGradient></defs><defs><linearGradient id="grad2_0" x1="0%" y1="100%" x2="56.3%" y2="0%"><stop offset="14.444444444444446%" stop-color="#e8e8e8" stop-opacity="1"></stop><stop offset="85.55555555555554%" stop-color="#e8e8e8" stop-opacity="1"></stop></linearGradient></defs><defs><linearGradient id="grad2_1" x1="0%" y1="100%" x2="56.3%" y2="0%"><stop offset="14.444444444444446%" stop-color="#ececec" stop-opacity="1"></stop><stop offset="85.55555555555554%" stop-color="#e8e8e8" stop-opacity="1"></stop></linearGradient></defs><defs><linearGradient id="grad2_2" x1="0%" y1="100%" x2="56.3%" y2="0%"><stop offset="14.444444444444446%" stop-color="#ececec" stop-opacity="1"></stop><stop offset="85.55555555555554%" stop-color="#f0f0f0" stop-opacity="1"></stop></linearGradient></defs><defs><linearGradient id="grad2_3" x1="0%" y1="100%" x2="56.3%" y2="0%"><stop offset="14.444444444444446%" stop-color="#f5f5f5" stop-opacity="1"></stop><stop offset="85.55555555555554%" stop-color="#f0f0f0" stop-opacity="1"></stop></linearGradient></defs><defs><linearGradient id="grad2_4" x1="0%" y1="100%" x2="56.3%" y2="0%"><stop offset="14.444444444444446%" stop-color="#f5f5f5" stop-opacity="1"></stop><stop offset="85.55555555555554%" stop-color="#f9f9f9" stop-opacity="1"></stop></linearGradient></defs><g transform="translate(960, 540)"><path d="M-427 0C-425.4 -63.2 -423.8 -126.5 -380.6 -157.7C-337.5 -188.8 -252.8 -187.9 -207.2 -207.2C-161.6 -226.4 -155.1 -265.9 -127.1 -306.7C-99 -347.6 -49.5 -389.8 0 -432L0 0Z" fill="#f7f7f7"></path><path d="M-341.6 0C-340.3 -50.6 -339 -101.2 -304.5 -126.1C-270 -151.1 -202.2 -150.3 -165.7 -165.7C-129.3 -181.2 -124.1 -212.7 -101.6 -245.4C-79.2 -278 -39.6 -311.8 0 -345.6L0 0Z" fill="#f3f3f3"></path><path d="M-256.2 0C-255.2 -37.9 -254.3 -75.9 -228.4 -94.6C-202.5 -113.3 -151.7 -112.8 -124.3 -124.3C-96.9 -135.9 -93 -159.5 -76.2 -184C-59.4 -208.5 -29.7 -233.9 0 -259.2L0 0Z" fill="#eeeeee"></path><path d="M-170.8 0C-170.2 -25.3 -169.5 -50.6 -152.3 -63.1C-135 -75.5 -101.1 -75.2 -82.9 -82.9C-64.6 -90.6 -62 -106.4 -50.8 -122.7C-39.6 -139 -19.8 -155.9 0 -172.8L0 0Z" fill="#eaeaea"></path><path d="M-85.4 0C-85.1 -12.6 -84.8 -25.3 -76.1 -31.5C-67.5 -37.8 -50.6 -37.6 -41.4 -41.4C-32.3 -45.3 -31 -53.2 -25.4 -61.3C-19.8 -69.5 -9.9 -78 0 -86.4L0 0Z" fill="#e8e8e8"></path></g><g transform="translate(0, 0)"><path d="M432 0C381.7 39.7 331.3 79.4 310.4 128.6C289.5 177.8 298 236.6 271.5 271.5C245 306.5 183.5 317.7 132.4 319.7C81.3 321.6 40.7 314.3 0 307L0 0Z" fill="#f7f7f7"></path><path d="M345.6 0C305.3 31.7 265.1 63.5 248.3 102.9C231.6 142.2 238.4 189.2 217.2 217.2C196 245.2 146.8 254.2 105.9 255.7C65.1 257.3 32.5 251.4 0 245.6L0 0Z" fill="#f3f3f3"></path><path d="M259.2 0C229 23.8 198.8 47.6 186.3 77.1C173.7 106.7 178.8 141.9 162.9 162.9C147 183.9 110.1 190.6 79.4 191.8C48.8 193 24.4 188.6 0 184.2L0 0Z" fill="#eeeeee"></path><path d="M172.8 0C152.7 15.9 132.5 31.7 124.2 51.4C115.8 71.1 119.2 94.6 108.6 108.6C98 122.6 73.4 127.1 53 127.9C32.5 128.6 16.3 125.7 0 122.8L0 0Z" fill="#eaeaea"></path><path d="M86.4 0C76.3 7.9 66.3 15.9 62.1 25.7C57.9 35.6 59.6 47.3 54.3 54.3C49 61.3 36.7 63.5 26.5 63.9C16.3 64.3 8.1 62.9 0 61.4L0 0Z" fill="#e8e8e8"></path></g></svg>