<?xml version="1.0" encoding="utf-8"?>
<!-- Generator: Adobe Illustrator 25.2.1, SVG Export Plug-In . SVG Version: 6.00 Build 0)  -->
<svg version="1.1" id="wave" xmlns="http://www.w3.org/2000/svg" xmlns:xlink="http://www.w3.org/1999/xlink" x="0px" y="0px"
	 viewBox="0 0 1440 230" style="enable-background:new 0 0 1440 230;" xml:space="preserve">
<style type="text/css">
	.st0{opacity:0.5;fill:url(#SVGID_1_);enable-background:new    ;}
	.st1{fill:url(#SVGID_2_);}
</style>
<linearGradient id="SVGID_1_" gradientUnits="userSpaceOnUse" x1="-238.3963" y1="1070.9626" x2="-238.3963" y2="1071.9626" gradientTransform="matrix(2304 0 0 -209.0473 550417 224111.9062)">
	<stop  offset="0" style="stop-color:#483848"/>
	<stop  offset="1" style="stop-color:#000000"/>
</linearGradient>
<path class="st0" d="M0,184l16-23c16-23,48-69,80-99.7C128,31,160,15,192,23s64,38,96,42.2c32,3.8,64-19.2,96-15.4
	c32,4.2,64,34.2,96,57.5c32,22.7,64,38.7,96,30.7s64-38,96-34.5s64,42.5,96,34.5s64-61,96-65.2c32-3.8,64,42.2,96,65.2
	s64,23,96,15.3c32-7.3,64-23.3,96-42.1c32-19.2,64-42.2,96-53.7s64-11.5,96-3.8c32,7.3,64,23.3,96,34.5c32,11.8,64,18.8,96,15.3
	s64-19.5,96-26.8c32-7.7,64-7.7,96-7.7s64,0,96,15.3c32,15.7,64,45.7,96,61.4c32,15.3,64,15.3,96-7.7s64-69,96-72.8
	c32-4.2,64,34.8,96,57.5c32,23.3,64,30.3,80,34.5l16,3.8v69h-16c-16,0-48,0-80,0s-64,0-96,0s-64,0-96,0s-64,0-96,0s-64,0-96,0
	s-64,0-96,0s-64,0-96,0s-64,0-96,0s-64,0-96,0s-64,0-96,0s-64,0-96,0s-64,0-96,0s-64,0-96,0s-64,0-96,0s-64,0-96,0s-64,0-96,0
	s-64,0-96,0s-64,0-96,0s-64,0-96,0s-64,0-96,0s-64,0-96,0s-64,0-96,0s-64,0-96,0s-64,0-80,0H0V184z"/>
<linearGradient id="SVGID_2_" gradientUnits="userSpaceOnUse" x1="-238.3963" y1="1070.4395" x2="-238.3963" y2="1071.4395" gradientTransform="matrix(2304 0 0 -185.067 550417 198333.0469)">
	<stop  offset="0" style="stop-color:#242423"/>
	<stop  offset="1" style="stop-color:#242423"/>
</linearGradient>
<path class="st1" d="M0,115l16-19.2C32,77,64,38,96,46s64,61,96,72.8c32,11.2,64-18.8,96-34.5c32-15.3,64-15.3,96-23
	c32-7.3,64-23.3,96-7.6c32,15.3,64,61.3,96,80.5c32,18.8,64,11.8,96,3.8s64-15,96-11.5s64,19.5,96,11.5s64-38,96-49.8
	c32-11.2,64-4.2,96,7.6c32,11.2,64,27.2,96,34.5c32,7.7,64,7.7,96,7.7s64,0,96-7.7c32-7.3,64-23.3,96-30.6c32-7.7,64-7.7,96-11.5
	c32-4.2,64-11.2,96-7.7s64,19.5,96,19.2c32,0.3,64-15.7,96-3.9c32,11.2,64,50.2,96,46c32-3.8,64-49.8,96-72.8s64-23,96-3.8
	c32,18.8,64,57.8,96,57.5c32,0.3,64-38.7,80-57.5l16-19.2v184h-16c-16,0-48,0-80,0s-64,0-96,0s-64,0-96,0s-64,0-96,0s-64,0-96,0
	s-64,0-96,0s-64,0-96,0s-64,0-96,0s-64,0-96,0s-64,0-96,0s-64,0-96,0s-64,0-96,0s-64,0-96,0s-64,0-96,0s-64,0-96,0s-64,0-96,0
	s-64,0-96,0s-64,0-96,0s-64,0-96,0s-64,0-96,0s-64,0-96,0s-64,0-96,0s-64,0-96,0s-64,0-80,0H0V115z"/>
</svg>
